<svg width="150" height="40" viewBox="0 0 150 40" fill="none" xmlns="http://www.w3.org/2000/svg">
<path d="M34.1422 5.85781C30.3647 2.08031 25.3422 0 20 0C14.6578 0 9.63531 2.08031 5.85781 5.85781C2.08031 9.63531 0 14.6578 0 20C0 25.3422 2.08039 30.3646 5.85781 34.1422C9.63523 37.9198 14.6578 40 20 40C25.3422 40 30.3647 37.9197 34.1422 34.1422C37.9197 30.3647 40 25.3422 40 20C40 14.6578 37.9196 9.63539 34.1422 5.85781Z" fill="#33CC95"/>
<g clip-path="url(#clip0)">
<path d="M20.5714 8V33.1429" stroke="white" stroke-width="2" stroke-linecap="round" stroke-linejoin="round"/>
<path d="M26.2857 12.5714H17.7143C16.6534 12.5714 15.636 12.9929 14.8859 13.743C14.1357 14.4931 13.7143 15.5106 13.7143 16.5714C13.7143 17.6323 14.1357 18.6497 14.8859 19.3999C15.636 20.15 16.6534 20.5714 17.7143 20.5714H23.4286C24.4894 20.5714 25.5069 20.9929 26.257 21.743C27.0072 22.4932 27.4286 23.5106 27.4286 24.5714C27.4286 25.6323 27.0072 26.6497 26.257 27.3999C25.5069 28.15 24.4894 28.5714 23.4286 28.5714H13.7143" stroke="white" stroke-width="2" stroke-linecap="round" stroke-linejoin="round"/>
</g>
<path d="M65.3291 15.884C66.5531 15.884 67.5371 16.262 68.2811 17.018C69.0371 17.762 69.4151 18.806 69.4151 20.15V26H66.8951V20.492C66.8951 19.712 66.6971 19.118 66.3011 18.71C65.9051 18.29 65.3651 18.08 64.6811 18.08C63.9971 18.08 63.4511 18.29 63.0431 18.71C62.6471 19.118 62.4491 19.712 62.4491 20.492V26H59.9291V20.492C59.9291 19.712 59.7311 19.118 59.3351 18.71C58.9391 18.29 58.3991 18.08 57.7151 18.08C57.0191 18.08 56.4671 18.29 56.0591 18.71C55.6631 19.118 55.4651 19.712 55.4651 20.492V26H52.9451V16.028H55.4651V17.234C55.7891 16.814 56.2031 16.484 56.7071 16.244C57.2231 16.004 57.7871 15.884 58.3991 15.884C59.1791 15.884 59.8751 16.052 60.4871 16.388C61.0991 16.712 61.5731 17.18 61.9091 17.792C62.2331 17.216 62.7011 16.754 63.3131 16.406C63.9371 16.058 64.6091 15.884 65.3291 15.884ZM81.3465 16.028L75.1725 30.716H72.4905L74.6505 25.748L70.6545 16.028H73.4805L76.0545 22.994L78.6645 16.028H81.3465ZM99.378 15.884C100.602 15.884 101.586 16.262 102.33 17.018C103.086 17.762 103.464 18.806 103.464 20.15V26H100.944V20.492C100.944 19.712 100.746 19.118 100.35 18.71C99.954 18.29 99.414 18.08 98.73 18.08C98.046 18.08 97.5 18.29 97.092 18.71C96.696 19.118 96.498 19.712 96.498 20.492V26H93.978V20.492C93.978 19.712 93.78 19.118 93.384 18.71C92.988 18.29 92.448 18.08 91.764 18.08C91.068 18.08 90.516 18.29 90.108 18.71C89.712 19.118 89.514 19.712 89.514 20.492V26H86.994V16.028H89.514V17.234C89.838 16.814 90.252 16.484 90.756 16.244C91.272 16.004 91.836 15.884 92.448 15.884C93.228 15.884 93.924 16.052 94.536 16.388C95.148 16.712 95.622 17.18 95.958 17.792C96.282 17.216 96.75 16.754 97.362 16.406C97.986 16.058 98.658 15.884 99.378 15.884ZM110.283 26.162C109.323 26.162 108.459 25.952 107.691 25.532C106.923 25.1 106.317 24.494 105.873 23.714C105.441 22.934 105.225 22.034 105.225 21.014C105.225 19.994 105.447 19.094 105.891 18.314C106.347 17.534 106.965 16.934 107.745 16.514C108.525 16.082 109.395 15.866 110.355 15.866C111.315 15.866 112.185 16.082 112.965 16.514C113.745 16.934 114.357 17.534 114.801 18.314C115.257 19.094 115.485 19.994 115.485 21.014C115.485 22.034 115.251 22.934 114.783 23.714C114.327 24.494 113.703 25.1 112.911 25.532C112.131 25.952 111.255 26.162 110.283 26.162ZM110.283 23.966C110.739 23.966 111.165 23.858 111.561 23.642C111.969 23.414 112.293 23.078 112.533 22.634C112.773 22.19 112.893 21.65 112.893 21.014C112.893 20.066 112.641 19.34 112.137 18.836C111.645 18.32 111.039 18.062 110.319 18.062C109.599 18.062 108.993 18.32 108.501 18.836C108.021 19.34 107.781 20.066 107.781 21.014C107.781 21.962 108.015 22.694 108.483 23.21C108.963 23.714 109.563 23.966 110.283 23.966ZM122.86 15.884C124.048 15.884 125.008 16.262 125.74 17.018C126.472 17.762 126.838 18.806 126.838 20.15V26H124.318V20.492C124.318 19.7 124.12 19.094 123.724 18.674C123.328 18.242 122.788 18.026 122.104 18.026C121.408 18.026 120.856 18.242 120.448 18.674C120.052 19.094 119.854 19.7 119.854 20.492V26H117.334V16.028H119.854V17.27C120.19 16.838 120.616 16.502 121.132 16.262C121.66 16.01 122.236 15.884 122.86 15.884ZM138.504 20.798C138.504 21.158 138.48 21.482 138.432 21.77H131.142C131.202 22.49 131.454 23.054 131.898 23.462C132.342 23.87 132.888 24.074 133.536 24.074C134.472 24.074 135.138 23.672 135.534 22.868H138.252C137.964 23.828 137.412 24.62 136.596 25.244C135.78 25.856 134.778 26.162 133.59 26.162C132.63 26.162 131.766 25.952 130.998 25.532C130.242 25.1 129.648 24.494 129.216 23.714C128.796 22.934 128.586 22.034 128.586 21.014C128.586 19.982 128.796 19.076 129.216 18.296C129.636 17.516 130.224 16.916 130.98 16.496C131.736 16.076 132.606 15.866 133.59 15.866C134.538 15.866 135.384 16.07 136.128 16.478C136.884 16.886 137.466 17.468 137.874 18.224C138.294 18.968 138.504 19.826 138.504 20.798ZM135.894 20.078C135.882 19.43 135.648 18.914 135.192 18.53C134.736 18.134 134.178 17.936 133.518 17.936C132.894 17.936 132.366 18.128 131.934 18.512C131.514 18.884 131.256 19.406 131.16 20.078H135.894ZM149.884 16.028L143.71 30.716H141.028L143.188 25.748L139.192 16.028H142.018L144.592 22.994L147.202 16.028H149.884Z" fill="white"/>
<defs>
<clipPath id="clip0">
<rect width="27.4286" height="27.4286" fill="white" transform="translate(6.85715 6.85714)"/>
</clipPath>
</defs>
</svg>
